# xmcd CD database file
#
# Track frame offsets:
#	150
#	20410
#	76870
#	88627
#	101555
#	117527
#	139360
#	158327
#	182320
#	200945
#	221370
#	234717
#	247355
#	265822
#	292407
#	310945
#
# Disc length: 4439 seconds
#
# Revision: 0
# Processed by: cddbd v1.5PL3 Copyright (c) Steve Scherf et al.
# Submitted via: ACXtractor (MTCDDB.DLL V2003.12.21)
#
DISCID=eb115510
DTITLE=Ricardo Arjona - Vivo
DYEAR=2004
DGENRE=Showtunes
TTITLE0=Aqui estoy
TTITLE1=Ella y el - historia de un taxi
TTITLE2=Quien diria
TTITLE3=Se nos muere el amor
TTITLE4=Realmente no estoy tan solo
TTITLE5=Si el norte fuera el sur
TTITLE6=Historia
TTITLE7=Señora de las cuatro decadas
TTITLE8=Desde la calle 33
TTITLE9=Tarde (Sin daños a terceros)
TTITLE10=Me enseñaste
TTITLE11=tu reputacion
TTITLE12=La sucursal del cielo
TTITLE13=Te Conozco
TTITLE14=Dime que no
TTITLE15=Mujeres
EXTD=ID3G:  69 YEAR: 2004
EXTT0=
EXTT1=
EXTT2=
EXTT3=
EXTT4=
EXTT5=
EXTT6=
EXTT7=
EXTT8=
EXTT9=
EXTT10=
EXTT11=
EXTT12=
EXTT13=
EXTT14=
EXTT15=
PLAYORDER=
